<?xml version="1.0" encoding="UTF-8"?>
<svg id="Vrstva_2" data-name="Vrstva 2" xmlns="http://www.w3.org/2000/svg" xmlns:xlink="http://www.w3.org/1999/xlink" viewBox="0 0 398.22 512">
  <defs>
    <style>
      .cls-1 {
        fill: #e4f4fc;
      }

      .cls-2 {
        fill: #fff;
      }

      .cls-3 {
        fill: url(#Nepojmenovaný_přechod_18);
      }

      .cls-4 {
        fill: #fce4e2;
      }

      .cls-5 {
        fill: #cedff1;
      }

      .cls-6 {
        fill: #fef1e6;
      }

      .cls-7 {
        fill: #d9effd;
      }

      .cls-8 {
        fill: #e4f3fd;
      }

      .cls-9 {
        fill: #fef0ef;
      }

      .cls-10 {
        fill: #fce7ee;
      }

      .cls-11 {
        fill: #fffaee;
      }

      .cls-12 {
        fill: #fde6e0;
      }

      .cls-13 {
        fill: #e3f3fc;
      }

      .cls-14 {
        fill: #f8e2ea;
      }

      .cls-15 {
        fill: #dff1fc;
      }

      .cls-16 {
        fill: #feffff;
      }

      .cls-17 {
        fill: #f1f9fe;
      }

      .cls-18 {
        fill: #f0f2fa;
      }
    </style>
    <linearGradient id="Nepojmenovaný_přechod_18" data-name="Nepojmenovaný přechod 18" x1="348.66" y1="-158.53" x2="349.88" y2="871.47" gradientTransform="translate(43.95 73.33) scale(.44)" gradientUnits="userSpaceOnUse">
      <stop offset=".11" stop-color="#9ed6f6"/>
      <stop offset=".5" stop-color="#ddd4e1"/>
      <stop offset=".57" stop-color="#e9d3da"/>
      <stop offset=".71" stop-color="#fcd9c8"/>
      <stop offset="1" stop-color="#ffe0a5"/>
    </linearGradient>
  </defs>
  <g id="Vrstva_1-2" data-name="Vrstva 1">
    <g id="Generativní_objekt" data-name="Generativní objekt">
      <path class="cls-7" d="M398.22,421.83v90.17h-187.04c7.27-12.72,22.06-19.85,36.74-17.17.47.16.61.9.76.67.13-.21,1.07-.06,1.15-.27,10.21-26.01,39.8-37.39,64.91-25.44l3.97,1.89c4.26,2.03,7.64,5.12,11.07,8.67,4.96-5.26,11.64-6.84,17.98-3.84-.04-4.33,3.08-7.17,4.95-10.06,1.02-7.93,2.79-15.41,7.46-22.31s10.79-13.08,18.35-16.77c.6-.29,1.44-1.02,2-.97l1.25.11c.09,0,.41-.37.47-.79,4.99-2.23,10.33-3.76,15.99-3.88Z"/>
      <path class="cls-10" d="M398.22,197.33v32.85h-27.98c.19-.35-.21-.62-.34-.84s-.91.1-1.05-.06c-1.49-1.7-3.03-3.07-4.48-4.94-.42-.55-1.42-.5-1.75-1.77-.51.33-1.17.45-1.57.83-2.77,2.67-6,5.11-9.93,6.01-.42.1-1.09-.21-1.51-.09-.26.07-.49.41-.34.83l-27.93.11c-4.72.02-8.89-2.54-10.79-6.65-1.3-2.8-.78-5.31.18-7.95.91-2.49,4.12-2.69,5.74-4.47,2.05-2.26,3-5.52,5.89-6.57,6.76-2.47,9.68.5,10.66.55.19,0,.05-.58.19-.72.3-.12.44.08.58.21.19.17.7.8.62,1.09-.38,1.41,1.43,2.09,1.74,3.01.47,1.41,1.19,2.5,2.41,3.89,9.92-20.65,24.1-16.82,29.43-18.05,4.52-1.04,7.97-6.61,14.64-4.65,3.83,1.12,9.1,2.93,11.14,8.3,3-.55,3.16-1.52,4.45-.92Z"/>
      <path class="cls-4" d="M59.11,301.32c-.22,0-.5.13-.74-.11-2.24-2.3-5.58-3.13-8.58-1.61-1.77.89-2.3,2.76-3.09,4.51-1.14-.57-2.23-.38-3.4-.43-3.02-.12-4.92,2.58-5.69,5.57-3.86-1.05-7.09,1.2-7.64,4.63-.16.98.18,1.82.7,2.47l-30.67.1v-49.78c6.09-1.9,12.9-.45,18.2,3.64,4.65,3.59,7.74,9.27,8.19,15.76,4.04-1.33,7.49.14,9.61,3.45,8.59-4.61,18.78.06,21.81,9.17.37,1.12.49,1.98,1.31,2.64Z"/>
      <path class="cls-2" d="M398.22,171.61v25.73c-1.29-.59-1.46.37-4.45.92-2.04-5.37-7.32-7.18-11.14-8.3-6.67-1.96-10.12,3.61-14.64,4.65-5.33,1.22-19.51-2.6-29.43,18.05-1.21-1.4-1.93-2.49-2.41-3.89-.31-.92-2.12-1.6-1.74-3.01.08-.29-.43-.92-.62-1.09-.15-.13-.28-.34-.58-.21-1.94-8.64,2.2-17.82,10.23-21.94,4.79-2.46,10.11-2.54,14.99-.34,3.15-7.6,9.66-12.86,16.63-14.87,8.51-2.45,16.36-.23,23.18,4.3Z"/>
      <path class="cls-12" d="M398.22,337.71v44.59c-1.24.18-2.04,1.65-3.29,2.03-7.91-11.94-19.12-21.19-32.7-25.17,3.21-6.92,9.36-12.26,16.3-15.83,4.65-2.39,14.8-5.99,19.69-5.61Z"/>
      <path class="cls-8" d="M128.2,512H60.44c.28-1.37,1.65-2.27,3.22-2.84.5-.18.97-.9,1.7-1.35l2.57-1.58c2.16-1.33,4.31-2.49,6.74-3.21.4-.12.49-.11.46-.6-.01-.21.46-.52,1-.06.73-1.49,2.64-.44,3.38-1.71,7.77-3.53,16.85-5.08,25.28-3.29l2.73.58c6.28,1.33,11.8,4.14,16.51,8.19,1.29,1.11,2.87,2.16,3.61,3.67.25.5.77.68,1.01,1.08.22.36-.03.95-.44,1.11Z"/>
      <path class="cls-13" d="M0,407.56v-22.22c2.16,2.06,1.71.52,3.62,2.24,6.78,6.11,6.97,8.3,8.64,9.86.22.2-.09,1.24.27,1.42.21.11.22.13.75.32.86,1.39,2.99,8.88,2.98,9.11l-.12,1.86c-3.19-.17-5.62-1.61-8.63-1.96-1.51-.18-6.04-1.08-7.51-.64Z"/>
      <path class="cls-9" d="M30.67,316.35c-.53-.66-.86-1.49-.7-2.47.55-3.43,3.78-5.68,7.64-4.63.77-2.99,2.67-5.69,5.69-5.57,1.17.05,2.26-.14,3.4.43.79-1.75,1.32-3.62,3.09-4.51,3-1.51,6.34-.68,8.58,1.61.24.25.53.1.74.11.48-.03.67.54.95.45-.56.19,7.96-7.97,18.27-1.64,2.34,1.43,3.8,3.5,4.59,6.11,6.22-.57,11.33,4,11.56,9.98l-63.81.13Z"/>
      <path class="cls-11" d="M83.09,405.38c-3.96,1.78-8.18,3.22-12.03,6.25-3.02-1.02-3.06-7.37-3.79-8.82-1.07-2.13-2.55-4.26-3.98-6.18,1.29,1.24-1.15-9.48.25-8.62.19,1.47.04,3.08.83,4.52,5.22-1.48,10.73.03,14.38,3.76.12.13,4.3,5.74,2.55,5.82,1.83-.64-.44,3.21,1.79,3.27Z"/>
      <g>
        <path class="cls-3" d="M0,266.67V0h398.22v171.61c-6.82-4.53-14.67-6.75-23.18-4.3-6.97,2-13.48,7.26-16.63,14.87-4.88-2.2-10.2-2.11-14.99.34-8.02,4.12-12.16,13.3-10.23,21.94-.14.14,0,.73-.19.72-.98-.05-3.9-3.02-10.66-.55-2.89,1.05-3.84,4.31-5.89,6.57-1.62,1.78-4.83,1.97-5.74,4.47-.96,2.65-1.48,5.16-.18,7.95,1.9,4.1,6.07,6.66,10.79,6.65l27.93-.11c2.22,0,6.55-.77,10.04-.57l10.93.62h27.98s0,107.51,0,107.51c-4.89-.38-15.04,3.22-19.69,5.61-6.93,3.57-13.09,8.92-16.3,15.83-28.38-8.31-58.24,4.97-70.41,32.36-4.08,9.18-5.76,19.03-4.61,29.24-7.96.56-14.44,5.36-17.3,12.63-6.86-3.65-14.03-4.45-21.48-3.23-15.27,3.15-26.51,15.66-27.75,31.26-6.01-.7-10.94,2.16-14.08,7.18-11.94-10.95-29.08-13.71-44.17-6.83-5.25-13.3-19.27-19.99-33.02-15.81,2.27-10.57-.69-20.78-7.47-28.77-9.67-11.35-24.59-15.09-38.85-11.82-2.23-.06.04-3.91-1.79-3.27,1.74-.08-2.43-5.69-2.55-5.82-3.65-3.73-9.16-5.25-14.38-3.76-.78-1.45-.63-3.05-.83-4.52-4.05-30.76-33.19-51.09-63.53-44.44v-27.11l30.67-.1,63.81-.13c-.22-5.98-5.33-10.55-11.56-9.98-.79-2.61-2.25-4.68-4.59-6.11-10.32-6.33-18.84,1.83-18.27,1.64-.29.09-.47-.48-.95-.45-.82-.66-.94-1.51-1.31-2.64-3.03-9.11-13.22-13.78-21.81-9.17-2.12-3.31-5.57-4.78-9.61-3.45-.44-6.49-3.53-12.16-8.19-15.76-5.3-4.09-12.11-5.54-18.2-3.64Z"/>
        <path class="cls-16" d="M96.79,165.87c-.07.55-.57.48-1.23.49-7.1.15-13.12,5.89-12.55,13.24l3.24.63-4.14.51c-4.82,2.79-10.66,3.78-15.79,1.79-1.29-.5-2.58-1.72-3.7-2.33-4.39-2.4-7.87.95-11.7,2.87-1.19.6-3.81.52-5.06.02-5.1-2.08-9.96-1.06-14.76.8-.58-.4-1.02-.54-1.65-.11-1.8,1.24-3.77,1.03-5.88,1.18s-3.4-.72-5-2.3c-4.03-3.97-2.13-12.07-.07-14.13,4.28-4.28,10.53-5,16.06-2.1.74-2.93,2.45-4.85,4.2-5.76,2.77-1.45,5.22-.95,7.88.39,2.59-13.04,14.19-21.35,27.16-20.28,9.2.76,17.12,6.33,20.94,14.62,1.56,3.39,1.58,6.95,2.04,10.46Z"/>
        <path class="cls-18" d="M14.21,186.28c-.65-.48-.99-1.98-1.18-2.68-.16.36,2.37-4.8,3.11-2.95,1.82,4.52,6.26,6.01,10.35,4.73.19-.06.59.84.86.4.15-.24.27-.35.21-.93.53.17,4.27-.01,3.55-.98,4.79-1.85,9.66-2.87,14.76-.8,1.24.51,3.86.58,5.06-.02,3.84-1.93,7.31-5.27,11.7-2.87,1.12.61,2.41,1.83,3.7,2.33,5.12,2,10.96,1,15.79-1.79l4.14-.51-3.24-.63c-.57-7.35,5.45-13.09,12.55-13.24.66-.01,1.16.06,1.23-.49,6.22-.76,12.86,1.24,14.61,8.37,3.63-.15,6.89,1.65,8.84,4.76,1.52,2.41,7.24-2.81,13.45,1.84.37.28.18,1.69-.18,1.81-.27.09-.73.21-1.18.22l-9.64.12c-.88,5.78-8.33,6.42-13,6.41l-87.35-.04c-3.21,0-5.84-1.38-8.13-3.07Z"/>
        <path class="cls-6" d="M258.6,352.69l-69.68.05c.84-4.5,5.24-5.72,9.04-4.87,1.83-4.11,6.41-6.01,10.6-3.7,1.41-2.97,3.75-5.14,6.39-6.07,3.33-1.17,6.58-.76,9.62,1.56,1.88-2.59,4.6-4.03,7.63-3.89s5.73,1.87,7.27,4.89c3.12-1,6.1.33,7.47,3.16,2.86-.91,4.46.74,6.26,2.08,1.13.84,3.34.18,4.32,1.82.8,1.33,1.8,2.79,1.08,4.97Z"/>
        <path class="cls-2" d="M365.37,285.01l-50.83.09c-.74-2.27.32-4.43,1.7-5.81,1.74-1.73,3.93-2.21,6.44-1.6.45-4.01,3.12-6.98,6.48-8,4.04-1.22,8.03.03,10.65,3.67,2.05-2.9,5.08-4.46,8.43-3.78s5.75,3.27,6.47,7.02c2.76-.77,5.55-.53,7.7,1.23,1.96,1.6,3.34,4.17,2.96,7.16Z"/>
        <path class="cls-5" d="M13.03,183.61c.19.7.52,2.19,1.18,2.68-1.47,2.45-4.24,2.72-7.09,2.37-1.74-.21-2.24-1.17-3.15-2.15-3.1-3.34-1.09-5.87.51-9.12,1.89-1.41,4.61-1.51,6.73-1.17.22,1.44.68-.39,1.3-.69.5.1.62.76.7,1.13.06.28-.69.63-.63,1.1.55,3.83-.77,1.28.45,5.86Z"/>
      </g>
      <path class="cls-14" d="M370.24,230.2l-10.93-.62c-3.49-.2-7.81.56-10.04.57-.15-.42.08-.76.34-.83.42-.12,1.1.19,1.51.09,3.92-.9,7.15-3.34,9.93-6.01.4-.39,1.06-.5,1.57-.83.33,1.27,1.32,1.23,1.75,1.77,1.45,1.87,2.99,3.24,4.48,4.94.14.16.93-.16,1.05.06.12.23.53.49.34.85Z"/>
      <g>
        <path class="cls-16" d="M63.53,388c-1.39-.85,1.04,9.86-.25,8.62,1.43,1.92,2.91,4.06,3.98,6.18.73,1.45.77,7.8,3.79,8.82,3.85-3.03,8.07-4.47,12.03-6.25,14.26-3.27,29.18.47,38.85,11.82,6.78,7.98,9.74,18.19,7.47,28.77,13.75-4.18,27.77,2.5,33.02,15.81,15.09-6.88,32.23-4.12,44.17,6.83,3.15-5.02,8.07-7.88,14.08-7.18,1.25-15.61,12.49-28.11,27.75-31.26,7.45-1.22,14.62-.42,21.48,3.23,2.86-7.28,9.34-12.07,17.3-12.63-1.15-10.21.53-20.06,4.61-29.24,12.16-27.39,42.02-40.67,70.41-32.36,13.58,3.98,24.79,13.23,32.7,25.17,1.25-.38,2.05-1.86,3.29-2.03v39.53c-5.66.12-11,1.66-15.99,3.88-.07.42-.39.8-.47.79l-1.25-.11c-.56-.05-1.4.68-2,.97-7.56,3.69-13.61,9.78-18.35,16.77s-6.45,14.39-7.46,22.31c-1.86,2.89-4.98,5.73-4.95,10.06-6.34-3-13.02-1.42-17.98,3.84-3.43-3.55-6.8-6.64-11.07-8.67l-3.97-1.89c-25.1-11.95-54.7-.57-64.91,25.44-.08.21-1.02.06-1.15.27-.14.23-.29-.52-.76-.67-14.67-2.68-29.46,4.45-36.74,17.17h-82.98c.41-.16.66-.75.44-1.11-.24-.4-.76-.58-1.01-1.08-.74-1.51-2.32-2.56-3.61-3.67-4.71-4.05-10.23-6.86-16.51-8.19l-2.73-.58c-8.44-1.79-17.51-.24-25.28,3.29-.74,1.27-2.65.22-3.38,1.71-.54-.46-1.01-.15-1,.06.03.49-.06.49-.46.6-2.42.72-4.57,1.88-6.74,3.21l-2.57,1.58c-.73.45-1.2,1.16-1.7,1.35-1.57.58-2.94,1.47-3.22,2.84H0v-104.44c1.46-.44,5.99.47,7.51.64,3,.35,5.43,1.79,8.63,1.96l.12-1.86c.02-.24-2.11-7.72-2.98-9.11-.53-.19-.54-.21-.75-.32-.36-.18-.05-1.22-.27-1.42-1.67-1.57-1.85-3.75-8.64-9.86-1.91-1.72-1.46-.18-3.62-2.24v-41.78c30.34-6.65,59.49,13.69,63.53,44.44Z"/>
        <path class="cls-17" d="M146.41,474.12c.49-.73.73-1.85,1.77-2.77-6.68-.6-13.01-.09-19.74-.05-1.16,0-2.51-.18-2.69,1.09-1.48-.47-1.98-1.99-2.96-3.06-3.08-3.38-6.25-6.48-10.87-7.42-.38-.08-5.91-2.02-8.22-.93-1.32.62-1.55-.48-5.82,1.91-.76.42-2.69.11-3.31-.33.12.08-2.56-4.07-8.04-7.86-3.13-2.17-9.81-4.13-13.27-4.36l-4.26-.29c.87-.21-.42-10.57-1.27-8.59-.1-.59.53-1.34.09-1.66-1.73-1.3-3.72-6.4-10.04-7.98-.95-.24-1.49-1.06-2.72-.86-.92.15-1.89-.3-2.68-.49,1.21-.54,2.03.04,3.14.21,2.01-2.79,5.11-3.48,8.22-4.63,1.18-.44,2.34.39,3.88.18,1.41-1.6,3.47-1.48,5.15-.71,1.86.86,3.84-.67,5.28-.32,1.95.48,4.76,1.26,6.7.94.33-.05,1.01,1.12,1.22.72.1-.18.34-.66.49-.55.4.27.65.67.84.59.17-.07.19-.54.53-.67-.99.52,6.29,2.99,5.98,2.92,1.74.38,2.83,1.91,4.84,2.21,1.07.16,4.53,3.39,5.15,2.07,1.41,2.58,4.29,3.13,5.58,5.2.94,1.51,2.92,2.13,3.27,3.51.31,1.23,1.69,2.16,2.02,2.99l1.17,2.88c-.2-.49,1.11,5.14,1.09,3.72,0,.11-.23.23-.37.14-2-1.26,1.22,3.13,1.55,2.29,2.44-2.07,6.31-2.21,8.87.03.53-.46,1.08-.33,1.45.13l3.09,3.85c1.02,1.27,1.13,2.57,1.66,4.02,1.36,3.72.61,3.02.76,8.09,4.21.12,7.95-.47,11.76.15l3.13.51c1.68-1.18,2.37-3.31,4.61-3.82l-7.04,7.02Z"/>
        <path class="cls-15" d="M146.41,474.12c-3.31,4.96-6.39,9.94-7.66,16.33-3.31-2.72-6.45-3.38-10.37-4.27.51-2.61-.22-8.85-1.13-10.73l-1.49-3.07c.18-1.27,1.53-1.08,2.69-1.09,6.72-.04,13.06-.54,19.74.05-1.04.93-1.28,2.04-1.77,2.77Z"/>
        <path class="cls-1" d="M49.43,429.16l-7.23,3.72c-.75.39-1.24,1.06-1.99.91-.88-.17-1.11-.86-1.28-1.83-.21-1.25-1.28-2.28-1.84-3.55-1.81-4.1-4.88-7.21-8.04-10.71-.42-1.44,6.8,1.02,6.96,1.03,3.39.33,11.02,6.07,13.43,10.42Z"/>
      </g>
    </g>
  </g>
</svg>